<?xml version="1.0" standalone="no"?>
<!DOCTYPE svg PUBLIC "-//W3C//DTD SVG 20010904//EN"
 "http://www.w3.org/TR/2001/REC-SVG-20010904/DTD/svg10.dtd">
<svg version="1.0" xmlns="http://www.w3.org/2000/svg"
 width="128.000000pt" height="128.000000pt" viewBox="0 0 128.000000 128.000000"
 preserveAspectRatio="xMidYMid meet">

<g transform="translate(0.000000,128.000000) scale(0.100000,-0.100000)"
fill="#000000" stroke="none">
<path d="M505 1045 c-24 -24 -25 -28 -25 -180 l0 -155 -37 0 c-115 0 -183
-138 -117 -236 15 -22 22 -40 16 -42 -61 -20 -134 -116 -136 -179 l-1 -38 240
0 240 0 -1 42 c-1 53 -39 113 -100 156 -41 29 -44 33 -27 45 12 9 45 12 103
10 l85 -3 3 -78 c4 -109 14 -110 121 -3 81 80 89 86 128 86 33 0 46 5 62 26
20 25 21 39 21 276 l0 249 -25 24 -24 25 -251 0 -251 0 -24 -25z m513 -37 c17
-17 17 -459 0 -476 -7 -7 -30 -12 -53 -12 -36 0 -47 -6 -100 -60 l-60 -61 -5
58 -5 58 -101 3 -100 3 4 28 c5 34 -30 119 -52 127 -14 5 -16 31 -16 163 0
109 4 161 12 169 17 17 459 17 476 0z m-500 -383 c32 -37 30 -94 -4 -129 -77
-76 -202 18 -150 113 31 56 111 64 154 16z m5 -241 c42 -21 75 -52 93 -86 8
-15 14 -29 14 -33 0 -9 -358 -6 -364 4 -3 5 8 27 25 51 52 72 158 101 232 64z"/>
<path d="M627 803 c-14 -13 -7 -53 11 -62 37 -20 70 27 40 57 -13 13 -41 16
-51 5z"/>
<path d="M760 795 c-28 -34 24 -80 55 -48 18 18 19 35 3 51 -16 16 -43 15 -58
-3z"/>
<path d="M902 798 c-18 -18 -14 -46 7 -58 38 -20 71 13 51 51 -12 21 -40 25
-58 7z"/>
</g>
</svg>
